<svg width="42" height="41" viewBox="0 0 42 41" fill="none" xmlns="http://www.w3.org/2000/svg">
<path d="M19.0846 18.6294C18.0261 19.6626 18.0261 21.3374 19.0846 22.3698C20.1422 23.4031 21.8586 23.4031 22.9163 22.3698C23.9747 21.3365 23.9747 19.6618 22.9163 18.6294C21.8578 17.5969 20.1422 17.5969 19.0846 18.6294ZM21 0C9.40173 0 0 9.17788 0 20.5C0 31.8221 9.40173 41 21 41C32.5983 41 42 31.8221 42 20.5C42 9.17788 32.5983 0 21 0ZM31.6812 12.238L26.095 24.1702C25.8248 24.7472 25.3508 25.21 24.7597 25.4737L12.5373 30.9269C11.1275 31.556 9.6744 30.1375 10.3188 28.7612L15.9058 16.829C16.176 16.252 16.65 15.7892 17.2412 15.5254L29.4635 10.0723C30.8734 9.44405 32.3256 10.8617 31.6812 12.238Z" fill="white"/>
</svg>
