<svg xmlns="http://www.w3.org/2000/svg" viewBox="0 0 109.94 109.95"><defs><style>.cls-1{fill:#e6b078;}.cls-2{fill:#56c0ec;}.cls-3{fill:#425a6c;}.cls-4{fill:#344b5e;}.cls-5{opacity:0.1;}.cls-6{fill:#efc087;}.cls-7{fill:#8bd7f8;}.cls-8{fill:#fbb040;}.cls-9{fill:#c68b2f;}</style></defs><title>Asset 4</title><g id="Layer_2" data-name="Layer 2"><g id="Layer_1-2" data-name="Layer 1"><rect class="cls-1" x="38.71" y="65.55" width="32.49" height="26.72"/><rect class="cls-2" x="31.06" y="90.39" width="47.8" height="19.56"/><path class="cls-3" d="M109.94,97.36v12.58H68l1.79-19.56L71.2,75V74.9l32,12.57a10.64,10.64,0,0,1,6.74,9.89"/><path class="cls-3" d="M41.92,109.94H0V97.36a10.61,10.61,0,0,1,6.73-9.89l32-12.57V75l1.39,15.42Z"/><path class="cls-4" d="M78.86,98.33a.36.36,0,0,0-.09.59l.09.09L90,109.94H68l1.79-19.56L71.2,75,91.79,92a.37.37,0,0,1-.09.62Z"/><path class="cls-4" d="M41.92,109.94H20L31.06,99l.11-.12a.36.36,0,0,0-.11-.59L18.21,92.6a.37.37,0,0,1-.09-.62L38.73,75l1.4,15.41Z"/><g class="cls-5"><polygon class="cls-3" points="71.2 65.55 71.2 74.97 59.6 84.31 46.22 74.36 53.36 65.55 71.2 65.55"/></g><path class="cls-1" d="M37.73,44.27c.36,4.11-1.63,7.64-4.45,7.89s-5.4-2.89-5.76-7,1.63-7.65,4.45-7.89,5.4,2.88,5.76,7"/><path class="cls-1" d="M82.41,45.16c-.37,4.11-2.94,7.24-5.76,7s-4.82-3.78-4.46-7.89,2.94-7.25,5.76-7,4.82,3.78,4.46,7.89"/><path class="cls-6" d="M78.68,33.51V41.3a42.34,42.34,0,0,1-.32,4.92,45.17,45.17,0,0,1-1.72,7.93A44.52,44.52,0,0,1,67,70.91l-2.26,2.47a10.91,10.91,0,0,1-8.07,3.55H53.24a10.94,10.94,0,0,1-8-3.55L43,70.91A44.57,44.57,0,0,1,31.59,46.22a40.25,40.25,0,0,1-.32-4.92,4.78,4.78,0,0,1,0-.53V33.65a23.71,23.71,0,0,1,46.51-6.51,22.4,22.4,0,0,1,.92,6.37"/><polygon class="cls-7" points="54.96 88.07 71.2 74.89 68.76 101.92 54.96 88.07"/><polygon class="cls-7" points="54.96 88.07 38.72 74.89 41.17 101.92 54.96 88.07"/><path class="cls-8" d="M81.4,29.07v1.5H28.52v-1.5A25.62,25.62,0,0,1,54.08,3.5h1.76A25.57,25.57,0,0,1,81.4,29.07"/><path class="cls-9" d="M70.28,14.75,68.35,30.57l-.3,2.53H41.87l-.3-2.53L39.65,14.75a15.16,15.16,0,0,1,.9-7.35A25.33,25.33,0,0,1,54.08,3.5h1.76A25.34,25.34,0,0,1,69.37,7.39a15.43,15.43,0,0,1,.91,7.36"/><path class="cls-8" d="M65.8,30.57H44.11l-2-16.12a12.89,12.89,0,1,1,25.6,0Z"/><path class="cls-9" d="M81.42,37.87H28.5a3.65,3.65,0,0,1,0-7.3H81.42a3.65,3.65,0,0,1,0,7.3"/><path class="cls-1" d="M78.68,37.86V41.3H31.27a4.78,4.78,0,0,1,0-.53V37.86Z"/></g></g></svg>