<svg width="24" height="28" viewBox="0 0 24 28" fill="none" xmlns="http://www.w3.org/2000/svg">
<path d="M12.0001 7.83997C8.59866 7.83997 5.65356 10.2024 4.91568 13.5229L2.49921 24.397C2.48149 24.4768 2.47254 24.5583 2.47254 24.64C2.47254 25.2585 2.97398 25.76 3.59254 25.76H20.4077C20.4894 25.76 20.5709 25.751 20.6507 25.7333C21.2545 25.5991 21.6352 25.0008 21.501 24.397L19.0846 13.5229C18.3467 10.2024 15.4016 7.83997 12.0001 7.83997ZM12.0001 5.59997C16.4515 5.59997 20.3056 8.69164 21.2712 13.037L23.6877 23.9111C24.0902 25.7226 22.9481 27.5174 21.1366 27.92C20.8973 27.9731 20.6529 28 20.4077 28H3.59254C1.73687 28 0.232544 26.4956 0.232544 24.64C0.232544 24.3948 0.259374 24.1504 0.312555 23.9111L2.72902 13.037C3.69466 8.69164 7.54877 5.59997 12.0001 5.59997Z" fill="#A9A9A9"/>
<path d="M14.2402 12.32C14.8588 12.32 15.3602 12.8214 15.3602 13.44C15.3602 14.0585 14.8588 14.56 14.2402 14.56H11.4402C11.1309 14.56 10.8802 14.8107 10.8802 15.12C10.8802 15.4292 11.1309 15.68 11.4402 15.68H12.5602C14.1066 15.68 15.3602 16.9336 15.3602 18.48C15.3602 20.0264 14.1066 21.28 12.5602 21.28H9.76021C9.14165 21.28 8.64021 20.7785 8.64021 20.16C8.64021 19.5414 9.14165 19.04 9.76021 19.04H12.5602C12.8695 19.04 13.1202 18.7892 13.1202 18.48C13.1202 18.1707 12.8695 17.92 12.5602 17.92H11.4402C9.89381 17.92 8.64021 16.6664 8.64021 15.12C8.64021 13.5736 9.89381 12.32 11.4402 12.32H14.2402Z" fill="#A9A9A9"/>
<path d="M10.8802 11.2C10.8802 10.5814 11.3817 10.08 12.0002 10.08C12.6188 10.08 13.1203 10.5814 13.1203 11.2V13.44C13.1203 14.0586 12.6188 14.56 12.0002 14.56C11.3817 14.56 10.8802 14.0586 10.8802 13.44V11.2Z" fill="#A9A9A9"/>
<path d="M13.1203 22.4C13.1203 23.0186 12.6188 23.52 12.0002 23.52C11.3817 23.52 10.8802 23.0186 10.8802 22.4V20.16C10.8802 19.5414 11.3817 19.04 12.0002 19.04C12.6188 19.04 13.1203 19.5414 13.1203 20.16V22.4Z" fill="#A9A9A9"/>
<path d="M10.8001 6.30404C11.0298 6.87836 10.7504 7.53017 10.1761 7.75989C9.6018 7.98962 8.95 7.71027 8.72027 7.13596L6.48027 1.53596C6.11627 0.625951 7.01409 -0.279605 7.92718 0.0765737C8.76587 0.403728 9.39096 0.56 9.76017 0.56C9.85208 0.56 9.92826 0.540358 10.0946 0.469683C10.1387 0.450919 10.1906 0.428012 10.3122 0.374186C10.8915 0.12032 11.3491 -3.76254e-07 12.0002 -3.76254e-07C12.6497 -3.76254e-07 13.1146 0.12064 13.6957 0.372056C13.8432 0.43663 13.9021 0.462313 13.9542 0.483786C14.0978 0.542916 14.1669 0.56 14.2402 0.56C14.5878 0.56 15.2185 0.402322 16.0812 0.0734544C16.9932 -0.274175 17.8825 0.629785 17.5201 1.53596L15.2801 7.13596C15.0503 7.71027 14.3985 7.98962 13.8242 7.75989C13.2499 7.53017 12.9705 6.87836 13.2003 6.30404L14.6096 2.78073C14.4808 2.79355 14.3578 2.8 14.2402 2.8C13.8314 2.8 13.4927 2.7162 13.1013 2.55506C13.0241 2.52324 12.9394 2.4863 12.8064 2.42794C12.4822 2.28767 12.2985 2.24 12.0002 2.24C11.7048 2.24 11.5313 2.28561 11.2114 2.42581C11.1015 2.47449 11.0319 2.50524 10.9706 2.53126C10.5512 2.70952 10.2002 2.8 9.76017 2.8C9.64188 2.8 9.51892 2.79386 9.3911 2.78165L10.8001 6.30404Z" fill="#A9A9A9"/>
</svg>
