<svg width="20" height="24" viewBox="0 0 20 24" fill="none" xmlns="http://www.w3.org/2000/svg">
<path d="M10 0C4.93398 0 0.8125 4.12148 0.8125 9.1875C0.8125 10.8091 1.24094 12.4034 2.05145 13.7979C2.24041 14.123 2.45162 14.4398 2.67934 14.7396L9.60081 24H10.3991L17.3207 14.7397C17.5483 14.4398 17.7595 14.1231 17.9485 13.7979C18.7591 12.4034 19.1875 10.8091 19.1875 9.1875C19.1875 4.12148 15.066 0 10 0ZM10 12.2344C8.31995 12.2344 6.95312 10.8675 6.95312 9.1875C6.95312 7.50745 8.31995 6.14062 10 6.14062C11.68 6.14062 13.0469 7.50745 13.0469 9.1875C13.0469 10.8675 11.68 12.2344 10 12.2344Z" fill="#A9A9A9"/>
</svg>
