<svg width="100" height="100" viewBox="0 0 100 100" fill="none" xmlns="http://www.w3.org/2000/svg">
<path d="M36.709 15.2724L29.3975 7.96384C36.5968 3.37395 44.9613 0.942587 53.5003 0.957677C67.3167 0.957677 79.6706 7.15737 87.9907 16.8854L98.8824 5.99808V36.2405H68.6277L80.78 24.0931C74.2752 16.1797 64.4929 11.0385 53.5003 11.0385C47.4494 11.0385 41.701 12.601 36.709 15.2724ZM58.5428 21.1193H48.4579V27.0166L58.5428 37.0974V21.1193ZM92.7306 99.8L77.6032 84.6788C70.3908 89.2397 62.0349 91.6686 53.5003 91.685C41.4643 91.685 29.9212 86.9056 21.4104 78.3982C12.8996 69.8909 8.11834 58.3525 8.11834 46.3213C8.11834 37.4502 10.69 29.1839 15.1273 22.2282L0 7.10697L7.10985 0L99.79 92.6426L92.7306 99.8ZM70.2413 77.3198L22.4389 29.5368C19.6664 34.6978 18.2115 40.4633 18.2032 46.3213C18.2032 65.7773 34.0365 81.6041 53.5003 81.6041C59.5513 81.6041 65.2997 80.0416 70.2413 77.3198ZM98.5798 51.3617H88.3941C87.789 55.5453 86.4275 59.4768 84.5114 63.0555L91.9238 70.4649C95.4535 64.8196 97.8234 58.3175 98.5798 51.3617Z" fill="#9D3663"/>
</svg>
