<svg width="100" height="96" viewBox="0 0 100 96" fill="none" xmlns="http://www.w3.org/2000/svg">
<path d="M4.99501 82.2857H65.0017C66.2762 82.2877 67.5021 82.9569 68.4289 84.1567C69.3557 85.3565 69.9134 86.9963 69.9881 88.741C70.0628 90.4857 69.6488 92.2037 68.8308 93.544C68.0127 94.8842 66.8523 95.7456 65.5867 95.952L65.0017 96H4.99501C3.72047 95.9981 2.49458 95.3288 1.56779 94.129C0.64101 92.9293 0.083295 91.2895 0.00860113 89.5447C-0.0660927 87.8 0.347872 86.082 1.16591 84.7417C1.98396 83.4015 3.14433 82.5401 4.40995 82.3337L4.99501 82.2857H65.0017H4.99501ZM4.99501 54.8571H95.005C96.2795 54.8591 97.5054 55.5283 98.4322 56.7281C99.359 57.9279 99.9167 59.5677 99.9914 61.3124C100.066 63.0572 99.6521 64.7752 98.8341 66.1154C98.016 67.4557 96.8557 68.317 95.5901 68.5234L95.005 68.5714H4.99501C3.72047 68.5695 2.49458 67.9003 1.56779 66.7005C0.64101 65.5007 0.083295 63.8609 0.00860113 62.1161C-0.0660927 60.3714 0.347872 58.6534 1.16591 57.3131C1.98396 55.9729 3.14433 55.1116 4.40995 54.9051L4.99501 54.8571H95.005H4.99501ZM4.99501 27.4286H95.005C96.2795 27.4305 97.5054 28.0997 98.4322 29.2995C99.359 30.4993 99.9167 32.1391 99.9914 33.8839C100.066 35.6286 99.6521 37.3466 98.8341 38.6869C98.016 40.0271 96.8557 40.8884 95.5901 41.0949L95.005 41.1429H4.99501C3.72047 41.1409 2.49458 40.4717 1.56779 39.2719C0.64101 38.0721 0.083295 36.4323 0.00860113 34.6876C-0.0660927 32.9428 0.347872 31.2248 1.16591 29.8846C1.98396 28.5443 3.14433 27.683 4.40995 27.4766L4.99501 27.4286H95.005H4.99501ZM4.99501 0H95.005C96.2795 0.00193857 97.5054 0.67117 98.4322 1.87096C99.359 3.07075 99.9167 4.71054 99.9914 6.45528C100.066 8.20002 99.6521 9.91803 98.8341 11.2583C98.016 12.5985 96.8557 13.4599 95.5901 13.6663L95.005 13.7143H4.99501C3.72047 13.7123 2.49458 13.0431 1.56779 11.8433C0.64101 10.6435 0.083295 9.00375 0.00860113 7.25901C-0.0660927 5.51426 0.347872 3.79626 1.16591 2.45601C1.98396 1.11576 3.14433 0.254425 4.40995 0.0479998L4.99501 0H95.005H4.99501Z" fill="#9D3663"/>
</svg>
