<svg width="113" height="131" viewBox="0 0 113 131" fill="none" xmlns="http://www.w3.org/2000/svg">
<path d="M68.0163 63.0206C68.2303 63.0208 68.4397 62.9578 68.618 62.8394C68.7964 62.7211 68.9358 62.5526 69.0188 62.3553C69.1018 62.158 69.1246 61.9406 69.0845 61.7303C69.0443 61.5201 68.943 61.3263 68.7932 61.1735L47.4965 39.5182C47.3451 39.3646 47.1515 39.2594 46.9402 39.2162C46.7289 39.1729 46.5095 39.1935 46.3099 39.2754C46.1104 39.3572 45.9397 39.4966 45.8196 39.6758C45.6996 39.855 45.6356 40.0659 45.6357 40.2816V59.7609C45.6357 60.6255 45.9792 61.4546 46.5905 62.0659C47.2018 62.6772 48.0309 63.0206 48.8954 63.0206H68.0163Z" fill="#9D3663"/>
<path d="M40.4745 68.1819C39.3588 67.0811 38.4723 65.7702 37.8661 64.3248C37.26 62.8795 36.9463 61.3283 36.9432 59.761V34.77H17.385C12.7784 34.7836 8.36438 36.6196 5.107 39.877C1.84962 43.1344 0.0136153 47.5484 0 52.155V113.003C0 117.613 1.83163 122.035 5.09196 125.296C8.35228 128.556 12.7742 130.388 17.385 130.388H56.5014C61.1122 130.388 65.5341 128.556 68.7944 125.296C72.0548 122.035 73.8864 117.613 73.8864 113.003V71.7132H48.8954C47.328 71.711 45.7765 71.3977 44.331 70.7915C42.8856 70.1853 41.5747 69.2983 40.4745 68.1819ZM88.0117 28.2506H107.133C107.347 28.2508 107.556 28.1878 107.734 28.0694C107.913 27.951 108.052 27.7826 108.135 27.5853C108.218 27.388 108.241 27.1706 108.201 26.9603C108.161 26.75 108.059 26.5563 107.909 26.4035L86.6128 4.74823C86.4614 4.59455 86.2678 4.48939 86.0565 4.44614C85.8452 4.40289 85.6258 4.42351 85.4262 4.50537C85.2267 4.58723 85.056 4.72662 84.9359 4.90581C84.8159 5.08499 84.7519 5.29585 84.752 5.51154V24.9909C84.752 25.8554 85.0955 26.6846 85.7068 27.2959C86.3181 27.9072 87.1472 28.2506 88.0117 28.2506Z" fill="#9D3663"/>
<path d="M88.0118 36.9432C84.8493 36.919 81.8232 35.652 79.587 33.4158C77.3507 31.1795 76.0837 28.1534 76.0595 24.991V0H46.7223C42.4012 0.00503246 38.2586 1.7238 35.2031 4.77927C32.1476 7.83474 30.4289 11.9774 30.4238 16.2985V26.0776H41.8654C43.3257 26.0834 44.7706 26.3777 46.1169 26.9437C47.4632 27.5096 48.6844 28.336 49.7104 29.3753L79.3627 59.5274C81.4314 61.6264 82.5865 64.458 82.5762 67.405V104.31H96.9868C105.818 104.31 113 96.9976 113 88.0117V36.9432H88.0118Z" fill="#9D3663"/>
</svg>
