<svg width="97" height="100" viewBox="0 0 97 100" fill="none" xmlns="http://www.w3.org/2000/svg">
<path d="M71.4737 36.3636V22.7273H56.1579V13.6364H71.4737V0H81.6842V13.6364H97V22.7273H81.6842V36.3636H71.4737ZM40.8421 54.5455C43.65 54.5455 46.0546 53.6545 48.0558 51.8727C50.0537 50.0939 51.0526 47.9545 51.0526 45.4545C51.0526 42.9545 50.0537 40.8136 48.0558 39.0318C46.0546 37.253 43.65 36.3636 40.8421 36.3636C38.0342 36.3636 35.6313 37.253 33.6335 39.0318C31.6322 40.8136 30.6316 42.9545 30.6316 45.4545C30.6316 47.9545 31.6322 50.0939 33.6335 51.8727C35.6313 53.6545 38.0342 54.5455 40.8421 54.5455ZM40.8421 100C27.143 89.6212 16.912 79.9803 10.1493 71.0773C3.38309 62.1773 0 53.9394 0 46.3636C0 35 4.10633 25.947 12.319 19.2045C20.5283 12.4621 30.036 9.09091 40.8421 9.09091C42.5439 9.09091 44.2456 9.18485 45.9474 9.37273C47.6491 9.56364 49.3509 9.84848 51.0526 10.2273V27.2727H66.3684V40.9091H81.3013C81.4715 41.8182 81.5787 42.7273 81.623 43.6364C81.6638 44.5455 81.6842 45.4545 81.6842 46.3636C81.6842 53.9394 78.3028 62.1773 71.5401 71.0773C64.7739 79.9803 54.5412 89.6212 40.8421 100Z" fill="#9D3663"/>
</svg>
