<svg width="120" height="120" viewBox="0 0 120 120" fill="none" xmlns="http://www.w3.org/2000/svg">
<g clip-path="url(#clip0_82_583)">
<path d="M18.2 24.7001V38.5334H22.1667V20.1667H19L13.5 23.8667L15.0667 26.6667L18.2 24.7001Z" fill="#9D3663"/>
<path d="M18.5669 49.4C18.9104 49.368 19.2568 49.4065 19.5849 49.5132C19.913 49.6198 20.2158 49.7923 20.4749 50.0202C20.7339 50.248 20.9437 50.5263 21.0914 50.8381C21.239 51.1499 21.3214 51.4886 21.3336 51.8333C21.3336 53.1 20.6336 54.3 18.4336 56.0667L11.7669 61.3V64.6333H25.5669V60.9333H17.7669L21.1002 58.3667C24.4336 56.0333 25.3669 54.1333 25.3669 51.7C25.3387 50.8688 25.1409 50.0521 24.7854 49.3001C24.43 48.5481 23.9246 47.8768 23.3002 47.3273C22.6758 46.7778 21.9457 46.3619 21.1546 46.1049C20.3636 45.848 19.5283 45.7556 18.7002 45.8333C17.311 45.8253 15.9398 46.1475 14.6996 46.7734C13.4593 47.3993 12.3856 48.311 11.5669 49.4333L14.1002 51.8667C14.6092 51.144 15.2758 50.5464 16.0496 50.1191C16.8233 49.6917 17.6841 49.4459 18.5669 49.4Z" fill="#9D3663"/>
<path d="M21.8666 82.1332C22.8129 81.8968 23.6537 81.3527 24.2571 80.5865C24.8604 79.8202 25.1921 78.8752 25.2 77.8999C25.2 74.9999 22.6 72.8666 18.5333 72.8666C17.1882 72.8431 15.8561 73.132 14.6415 73.7103C13.4269 74.2887 12.3629 75.1409 11.5333 76.1999L13.8333 78.5999C14.3656 77.9603 15.0265 77.4399 15.7731 77.0723C16.5196 76.7048 17.3351 76.4984 18.1666 76.4666C19.9666 76.4666 21.2333 77.3332 21.2333 78.6666C21.2333 79.9999 20.0333 80.7332 17.9 80.7332H15.9666V84.0665H18.1C20.5666 84.0665 21.6666 84.7666 21.6666 86.1666C21.6666 87.5666 20.5 88.4332 18.3333 88.4332C17.4167 88.426 16.5115 88.2299 15.6741 87.8571C14.8368 87.4843 14.0853 86.9429 13.4666 86.2665L11.1333 88.8665C12.0623 89.8874 13.2026 90.6936 14.4748 91.2289C15.747 91.7643 17.1206 92.016 18.5 91.9666C22.8 91.9666 25.6 89.6666 25.6 86.4999C25.5973 85.4473 25.2203 84.43 24.5363 83.63C23.8523 82.83 22.906 82.2994 21.8666 82.1332Z" fill="#9D3663"/>
<path d="M108.067 30.0001C108.067 29.116 107.716 28.2682 107.091 27.6431C106.465 27.0179 105.618 26.6667 104.733 26.6667H33.3335V33.3334H104.733C105.618 33.3334 106.465 32.9822 107.091 32.3571C107.716 31.732 108.067 30.8841 108.067 30.0001Z" fill="#9D3663"/>
<path d="M104.733 53.3333H33.3335V59.9999H104.733C105.618 59.9999 106.465 59.6487 107.091 59.0236C107.716 58.3985 108.067 57.5506 108.067 56.6666C108.067 55.7825 107.716 54.9347 107.091 54.3096C106.465 53.6844 105.618 53.3333 104.733 53.3333Z" fill="#9D3663"/>
<path d="M104.733 80H33.3335V86.6667H104.733C105.618 86.6667 106.465 86.3155 107.091 85.6904C107.716 85.0652 108.067 84.2174 108.067 83.3333C108.067 82.4493 107.716 81.6014 107.091 80.9763C106.465 80.3512 105.618 80 104.733 80Z" fill="#9D3663"/>
</g>
<defs>
<clipPath id="clip0_82_583">
<rect width="120" height="120" fill="white"/>
</clipPath>
</defs>
</svg>
