<svg width="100" height="100" viewBox="0 0 100 100" fill="none" xmlns="http://www.w3.org/2000/svg">
<path d="M100 39.5556H62.3308L77.554 23.8889C62.3863 8.88889 37.8291 8.33333 22.6614 23.3333C7.49375 38.3889 7.49375 62.6667 22.6614 77.7222C37.8291 92.7778 62.3863 92.7778 77.554 77.7222C85.1101 70.2778 88.8881 61.5556 88.8881 50.5556H100C100 61.5556 95.1108 75.8333 85.3323 85.5C65.831 104.833 34.1622 104.833 14.6609 85.5C-4.78486 66.2222 -4.95154 34.8889 14.5498 15.6111C34.0511 -3.66667 65.331 -3.66667 84.8323 15.6111L100 0V39.5556ZM52.7746 27.7778V51.3889L72.2203 62.9444L68.2201 69.6667L44.4407 55.5556V27.7778H52.7746Z" fill="#9D3663"/>
</svg>
