<svg width="101" height="100" viewBox="0 0 101 100" fill="none" xmlns="http://www.w3.org/2000/svg">
<path d="M90.6951 75C93.2955 75 95.7894 73.9464 97.6282 72.0711C99.467 70.1957 100.5 67.6522 100.5 65V10C100.5 7.34784 99.467 4.8043 97.6282 2.92893C95.7894 1.05357 93.2955 0 90.6951 0H39.0234C40.7393 3.05 41.6707 6.5 41.6707 10H90.6951V65H46.5732V75M66.1829 25V35H36.7683V100H26.9634V70H17.1585V100H7.35366V60H0V35C0 32.3478 1.03301 29.8043 2.87178 27.9289C4.71055 26.0536 7.20446 25 9.80488 25H66.1829ZM31.8659 10C31.8659 12.6522 30.8328 15.1957 28.9941 17.0711C27.1553 18.9464 24.6614 20 22.061 20C19.4606 20 16.9667 18.9464 15.1279 17.0711C13.2891 15.1957 12.2561 12.6522 12.2561 10C12.2561 7.34784 13.2891 4.8043 15.1279 2.92893C16.9667 1.05357 19.4606 0 22.061 0C24.6614 0 27.1553 1.05357 28.9941 2.92893C30.8328 4.8043 31.8659 7.34784 31.8659 10Z" fill="#9D3663"/>
</svg>
