<svg width="84" height="84" viewBox="0 0 84 84" fill="none" xmlns="http://www.w3.org/2000/svg">
<path d="M8.33333 16.6667H0V75.0001C0 79.5834 3.75 83.3334 8.33333 83.3334H66.6667V75.0001H8.33333V16.6667Z" fill="#9D3663"/>
<path d="M75.0003 0H25.0003C20.417 0 16.667 3.75 16.667 8.33333V58.3333C16.667 62.9167 20.417 66.6667 25.0003 66.6667H75.0003C79.5837 66.6667 83.3337 62.9167 83.3337 58.3333V8.33333C83.3337 3.75 79.5837 0 75.0003 0ZM60.9587 52.0833L57.6253 42.5H42.5003L39.0837 52.0833H32.542L46.6253 14.5833H53.3337L67.417 52.0833H60.9587Z" fill="#9D3663"/>
<path d="M49.8333 21.5417L44.375 37.0417H55.5833L50.1667 21.5417H49.8333Z" fill="#9D3663"/>
</svg>
